<?xml version="1.0" encoding="UTF-8"?>
<svg version="1.1" xmlns="http://www.w3.org/2000/svg" width="1536" height="1024" viewBox="0 0 1536 1024">

<path d="M0 0 C0.64404785 0.33338379 1.2880957 0.66676758 1.95166016 1.01025391 C17.75288992 9.21863338 32.06796787 19.78230869 45 32 C46.32861796 33.15129758 47.66184718 34.29729878 49 35.4375 C101.70339992 81.43319448 131.39961651 151.82063109 148.125 218.125 C148.29548859 218.79846466 148.46597717 219.47192932 148.64163208 220.165802 C151.81190493 232.73407298 154.55391824 245.37580685 156.5625 258.1875 C156.68544434 258.96359619 156.80838867 259.73969238 156.93505859 260.53930664 C157.99879829 267.50228249 158.72818762 274.48786534 159.35375977 281.50268555 C159.42522217 282.29457275 159.49668457 283.08645996 159.5703125 283.90234375 C159.65949951 284.94636353 159.65949951 284.94636353 159.75048828 286.01147461 C159.95600942 287.99891756 159.95600942 287.99891756 160.4921875 289.88452148 C163.6882497 303.19888639 162.15258891 318.42344802 162.13037109 331.97802734 C162.12502193 335.8590894 162.13033624 339.74003526 162.13671875 343.62109375 C162.14484394 363.11537036 161.31237115 381.92457021 158.25 401.1875 C158.1168338 402.03928833 157.9836676 402.89107666 157.84646606 403.76867676 C155.89715774 416.20361337 153.70782434 428.52283419 150.578125 440.72314453 C150.0222438 442.91239626 149.50688735 445.10755612 149 447.30859375 C142.23524197 475.73592286 131.53327872 504.02413431 118.07275391 529.92822266 C116.94527568 532.10568743 115.83772743 534.29266055 114.73046875 536.48046875 C100.99484997 563.36404114 83.85539237 588.27794764 64 611 C63.27554688 611.83660156 62.55109375 612.67320312 61.8046875 613.53515625 C52.91100667 623.62669446 43.37312969 633.42152943 33 642 C31.93488244 642.91404689 30.8697798 643.82811117 29.8046875 644.7421875 C13.29578917 658.71243475 -5.0974305 670.53034317 -24 681 C-24.74523926 681.41443359 -25.49047852 681.82886719 -26.25830078 682.25585938 C-47.75568894 694.11958183 -71.02849674 703.74111031 -94.8125 710.00390625 C-99.09999372 711.34374804 -102.82308963 713.40651718 -106.75 715.5625 C-145.2196694 736.12137066 -186.05568808 748.23354014 -229 755 C-230.08764648 755.17547363 -231.17529297 755.35094727 -232.29589844 755.53173828 C-250.88976493 758.37683718 -269.39757169 759.35560454 -288.1875 759.25 C-289.2134729 759.24623352 -290.2394458 759.24246704 -291.29650879 759.23858643 C-374.59291241 758.881431 -458.03491598 734.17862369 -524 682 C-524.89203125 681.30777344 -525.7840625 680.61554687 -526.703125 679.90234375 C-529.16505086 677.9685407 -531.58644416 675.993807 -534 674 C-534.99515625 673.19046875 -535.9903125 672.3809375 -537.015625 671.546875 C-551.98941036 659.17577669 -566.33925439 645.41761135 -577.77441406 629.66992188 C-579.0460729 627.93722338 -580.35789797 626.24157428 -581.6796875 624.546875 C-611.06723655 586.42446141 -625.76026376 538.17121071 -620.58544922 490.15332031 C-612.26537663 431.10316659 -579.08202128 378.36269055 -534 340 C-533.10152344 339.21238281 -532.20304687 338.42476563 -531.27734375 337.61328125 C-511.41235892 320.32171491 -489.43778335 306.14902324 -466.46923828 293.37402344 C-464.93081596 292.5179585 -463.39486909 291.65741047 -461.86279297 290.79003906 C-442.05512758 279.59207966 -420.65167855 270.92150683 -399 264 C-398.07348633 263.70254883 -397.14697266 263.40509766 -396.19238281 263.09863281 C-386.3522186 259.96484341 -376.48054994 256.98000321 -366.4375 254.5625 C-365.76565674 254.39854736 -365.09381348 254.23459473 -364.40161133 254.06567383 C-360.53487043 253.17937024 -356.96210192 252.84737666 -353 253 C-352.896875 251.94425781 -352.79375 250.88851563 -352.6875 249.80078125 C-344.48199146 184.79776827 -307.9458376 115.47270393 -266 66 C-265.12702735 64.94188188 -264.25466622 63.88325902 -263.3828125 62.82421875 C-252.19329882 49.36047651 -239.92065836 36.65070505 -226 26 C-224.72689729 24.98819507 -223.45484325 23.97506986 -222.18359375 22.9609375 C-195.78133725 2.09558488 -165.81694422 -12.45087832 -133 -20 C-132.23945312 -20.17934082 -131.47890625 -20.35868164 -130.6953125 -20.54345703 C-86.93457087 -30.3448509 -39.03156593 -20.69085469 0 0 Z " fill="#E5224E" transform="translate(965,121)"/>
<path d="M0 0 C0.9684082 0.3000293 1.93681641 0.60005859 2.93457031 0.90917969 C34.0724411 10.73249426 62.66902918 25.36184407 88 46 C88.89960449 46.72606445 88.89960449 46.72606445 89.81738281 47.46679688 C103.84560607 58.86130913 116.99904203 71.64353748 128 86 C129.15628906 87.43085938 129.15628906 87.43085938 130.3359375 88.890625 C158.36674424 124.08387762 173.33597395 165.08963896 181 209 C181.18175781 209.90427734 181.36351562 210.80855469 181.55078125 211.74023438 C182.14740665 216.06965955 182.16249482 220.32595914 182.16796875 224.69140625 C182.17129715 225.63193344 182.17462555 226.57246063 182.17805481 227.54148865 C182.18310909 229.53603632 182.1854636 231.53059242 182.18530273 233.52514648 C182.18745525 236.50064147 182.20553136 239.4757441 182.22460938 242.45117188 C182.2810338 260.67711567 181.10708081 278.46747477 176.9375 296.25 C176.7876062 296.89921417 176.6377124 297.54842834 176.48327637 298.21731567 C169.83217274 326.82061289 158.31107916 354.54746683 142 379 C141.52449707 379.71736328 141.04899414 380.43472656 140.55908203 381.17382812 C133.44938339 391.80630762 125.5676434 401.51744324 117 411 C116.00481444 412.11813913 115.01001146 413.23661891 114.015625 414.35546875 C108.97927395 419.98215817 103.80654611 425.1767371 98 430 C97.08089844 430.80695313 96.16179687 431.61390625 95.21484375 432.4453125 C44.51526477 476.80140653 -23.19228438 497.57499482 -90 494 C-144.61382731 489.80307534 -196.37128054 468.58173422 -238 433 C-238.76054688 432.35160156 -239.52109375 431.70320313 -240.3046875 431.03515625 C-253.44683182 419.50812394 -265.68242565 407.12520223 -276 393 C-276.85806152 391.84894983 -277.71613451 390.69790823 -278.57421875 389.546875 C-287.72521899 377.13351093 -295.39415254 363.98652629 -302.01611328 350.06689453 C-302.66923001 348.69486322 -303.32901897 347.32598714 -303.99560547 345.96044922 C-320.06746861 312.89900308 -326.36261173 277.03050756 -326.4375 240.5625 C-326.44349213 239.60047668 -326.44948425 238.63845337 -326.45565796 237.64727783 C-326.53051283 219.59089791 -324.64472893 202.04112135 -320.25 184.5 C-319.99323486 183.46012939 -319.73646973 182.42025879 -319.47192383 181.34887695 C-310.57608492 146.23372339 -294.57845078 114.3005048 -272 86 C-271.2265625 85.01902344 -270.453125 84.03804688 -269.65625 83.02734375 C-256.94365074 67.43831775 -242.42888504 52.66253804 -226 41 C-225.39446289 40.56075195 -224.78892578 40.12150391 -224.16503906 39.66894531 C-160.42457062 -6.44743047 -75.8813939 -23.6389736 0 0 Z " fill="#FDFDFD" transform="translate(862,315)"/>
<path d="M0 0 C-0.48766846 0.47195801 -0.97533691 0.94391602 -1.4777832 1.43017578 C-10.90105843 10.59042943 -19.979019 19.69843503 -27.75097656 30.31542969 C-29.00805377 32.0108622 -30.30620248 33.66632031 -31.6171875 35.3203125 C-52.12593942 61.61454188 -65.30711696 93.33219598 -73.25 125.5 C-73.48420654 126.43481201 -73.71841309 127.36962402 -73.9597168 128.33276367 C-78.12138534 145.97173244 -79.55677201 163.48229989 -79.4375 181.5625 C-79.43243942 183.06278748 -79.43243942 183.06278748 -79.42727661 184.59338379 C-79.1407238 243.50020336 -58.59544612 300.28055321 -20 345 C-19.34257813 345.76828125 -18.68515625 346.5365625 -18.0078125 347.328125 C-6.75902418 360.14749885 5.28346605 371.86676471 19 382 C19.88558594 382.680625 20.77117187 383.36125 21.68359375 384.0625 C75.11809464 424.40270158 143.20229636 440.55730186 209.19140625 432.03515625 C236.37906214 428.10661995 262.35277096 420.08512534 287 408 C287.79744629 407.61086426 288.59489258 407.22172852 289.41650391 406.82080078 C306.53788802 398.37259002 322.09947808 387.89935673 337 376 C337.66 376.33 338.32 376.66 339 377 C338.34 377.763125 337.68 378.52625 337 379.3125 C334.65883695 382.11015723 332.54416277 385.02252464 330.4375 388 C318.19646754 404.89125708 303.48050285 420.21920187 287 433 C286.23042969 433.63679688 285.46085938 434.27359375 284.66796875 434.9296875 C239.36403303 472.34487819 181.57267325 491.81681579 124.3125 501.25 C123.56342377 501.3750592 122.81434753 501.50011841 122.04257202 501.62896729 C101.66803312 504.99755175 81.45452825 506.36601385 60.8125 506.25 C59.27354065 506.24435028 59.27354065 506.24435028 57.70349121 506.23858643 C-25.59291241 505.881431 -109.03491598 481.17862369 -175 429 C-175.89203125 428.30777344 -176.7840625 427.61554688 -177.703125 426.90234375 C-180.16505086 424.9685407 -182.58644416 422.993807 -185 421 C-185.99515625 420.19046875 -186.9903125 419.3809375 -188.015625 418.546875 C-202.98941036 406.17577669 -217.33925439 392.41761135 -228.77441406 376.66992188 C-230.0460729 374.93722338 -231.35789797 373.24157428 -232.6796875 371.546875 C-262.06723655 333.42446141 -276.76026376 285.17121071 -271.58544922 237.15332031 C-263.26537663 178.10316659 -230.08202128 125.36269055 -185 87 C-184.10152344 86.21238281 -183.20304687 85.42476563 -182.27734375 84.61328125 C-162.41235892 67.32171491 -140.43778335 53.14902324 -117.46923828 40.37402344 C-115.93081596 39.5179585 -114.39486909 38.65741047 -112.86279297 37.79003906 C-93.04687017 26.58741146 -71.64798878 17.95526202 -50 11 C-49.10539063 10.70786621 -48.21078125 10.41573242 -47.2890625 10.11474609 C-36.40643804 6.58203819 -25.48369756 3.48563347 -14.3125 1 C-13.33821045 0.78005371 -12.3639209 0.56010742 -11.36010742 0.33349609 C-10.45365479 0.14094238 -9.54720215 -0.05161133 -8.61328125 -0.25 C-7.81704346 -0.42015625 -7.02080566 -0.5903125 -6.20043945 -0.765625 C-3.85808953 -1.01511528 -2.22960862 -0.71235534 0 0 Z " fill="#403130" transform="translate(616,374)"/>
<path d="M0 0 C0.33 41.91 0.66 83.82 1 127 C4.63 123.04 8.26 119.08 12 115 C31.58011771 97.07121752 52.76423796 92.90159438 78.73828125 93.77929688 C96.91531938 95.00924017 114.27460992 102.04262627 128 114 C128.86367188 114.74507812 129.72734375 115.49015625 130.6171875 116.2578125 C148.50973474 132.83249507 158.95991587 157.8789883 160.09968567 182.12016296 C160.14634649 184.22911642 160.16468936 186.33585127 160.16796875 188.4453125 C160.17129715 189.21825653 160.17462555 189.99120056 160.17805481 190.78756714 C160.18307916 192.4127341 160.18546454 194.03791122 160.18530273 195.66308594 C160.18747634 198.09848868 160.20564499 200.53342779 160.22460938 202.96875 C160.27943598 217.23290988 159.05234607 230.54640925 154.3125 244.125 C153.95728271 245.15979492 153.60206543 246.19458984 153.23608398 247.26074219 C143.90672359 273.71645462 126.05316791 292.88264063 100.95117188 305.10400391 C57.24380411 325.1748297 2.06758077 314.16861107 -42 301 C-42.66 300.67 -43.32 300.34 -44 300 C-44.00059709 299.4369347 -44.00119418 298.87386941 -44.00180936 298.29374152 C-44.03769129 264.93331651 -44.09431168 231.57299895 -44.17792095 198.21266048 C-44.18793859 194.20842441 -44.19778269 190.20418793 -44.20751953 186.19995117 C-44.2094609 185.40276858 -44.21140228 184.60558599 -44.21340248 183.78424635 C-44.24443664 170.87074174 -44.26140707 157.95725492 -44.27319422 145.04372004 C-44.28559846 131.79650974 -44.31308337 118.54939285 -44.35461307 105.3022415 C-44.37976938 97.12582233 -44.39311573 88.94955805 -44.39142957 80.77309962 C-44.39139634 74.50687406 -44.41232926 68.24087931 -44.44116783 61.97472382 C-44.44970709 59.40158371 -44.45138969 56.82841059 -44.44580269 54.25526237 C-44.43920209 50.74903411 -44.45699025 47.2437575 -44.48101807 43.73762512 C-44.47325765 42.71330613 -44.46549723 41.68898715 -44.45750165 40.63362819 C-44.51081514 36.25577674 -44.5690626 33.71071657 -46.87569809 29.90653515 C-52.3285188 25.01269483 -59.90794603 25.39838706 -66.875 24.875 C-67.94492187 24.78863281 -69.01484375 24.70226562 -70.1171875 24.61328125 C-72.74426364 24.40217692 -75.37206907 24.20018274 -78 24 C-78 17.4 -78 10.8 -78 4 C-68.86376347 3.47635762 -59.72743459 2.95440595 -50.5909338 2.43539429 C-46.3480781 2.19430591 -42.10526657 1.95248944 -37.86254883 1.70898438 C-33.76481787 1.47382791 -29.66698035 1.24061622 -25.56906319 1.00872803 C-24.00900928 0.92011142 -22.44899439 0.83080511 -20.88902092 0.74078369 C-18.69686656 0.61440152 -16.5045838 0.49051689 -14.31225586 0.3671875 C-13.06649277 0.29612793 -11.82072968 0.22506836 -10.53721619 0.15185547 C-7.02767871 0.00118827 -3.51277012 0 0 0 Z " fill="#453434" transform="translate(768,406)"/>
<path d="M0 0 C0 4.24561117 -2.46779071 6.0761937 -5.1875 9.0625 C-12.43121544 17.26516607 -18.74734848 26.03039827 -25 35 C-25.44053711 35.62455078 -25.88107422 36.24910156 -26.33496094 36.89257812 C-34.43517156 48.41372078 -41.21328972 60.67425075 -48 73 C-48.42168457 73.75539063 -48.84336914 74.51078125 -49.27783203 75.2890625 C-60.5937971 95.5751736 -69.18611901 117.16394902 -77 139 C-77.30357422 139.82757813 -77.60714844 140.65515625 -77.91992188 141.5078125 C-84.4070345 159.24984882 -88.58627227 177.65944685 -93 196 C-93.68698975 196.13986328 -94.37397949 196.27972656 -95.08178711 196.42382812 C-112.11184639 199.93570442 -128.58154935 204.27337132 -145 210 C-145.98000977 210.33870117 -146.96001953 210.67740234 -147.96972656 211.02636719 C-198.65332204 228.72780203 -245.16699016 256.93097329 -284.30786133 293.64892578 C-287.89794689 297 -287.89794689 297 -289 297 C-293.22142529 265.2457504 -294.339045 232.39021147 -289.41015625 200.65771484 C-289.01777431 198.11517332 -288.67406161 195.57078064 -288.34375 193.01953125 C-281.48918614 142.34564789 -258.12881632 95.76849233 -223 59 C-222.32582031 58.27296875 -221.65164063 57.5459375 -220.95703125 56.796875 C-214.91956207 50.46332524 -207.96391771 45.25992063 -201 40 C-200.45102051 39.57960449 -199.90204102 39.15920898 -199.33642578 38.72607422 C-169.8378526 16.24289545 -134.92523844 2.98055119 -98.42822266 -2.62548828 C-96.29481213 -2.95453028 -94.16990194 -3.31571248 -92.04296875 -3.68359375 C-61.75592049 -8.20637645 -30.0366834 -4.42328612 0 0 Z " fill="#CEBCA5" transform="translate(705,178)"/>
<path d="M0 0 C0.96494385 0.20173828 1.9298877 0.40347656 2.92407227 0.61132812 C3.98972412 0.82362061 5.05537598 1.03591309 6.15332031 1.25463867 C7.23395752 1.48578369 8.31459473 1.71692871 9.42797852 1.95507812 C11.38089198 2.32728348 13.33401199 2.69840708 15.28735352 3.06835938 C17.25140278 3.46559746 19.21494737 3.86533898 21.17797852 4.26757812 C22.61270508 4.54891602 22.61270508 4.54891602 24.07641602 4.8359375 C32.72217098 6.60957193 41.05459794 9.20741028 49.42797852 11.95507812 C50.08163391 12.16879059 50.73528931 12.38250305 51.40875244 12.60269165 C68.74782276 18.29018628 85.84827749 24.29151702 102.42797852 31.95507812 C103.391875 32.39400391 104.35577148 32.83292969 105.34887695 33.28515625 C121.29023456 40.57408224 136.47140118 48.82306256 151.42797852 57.95507812 C152.31839844 58.49729004 153.20881836 59.03950195 154.1262207 59.59814453 C163.94202625 65.60568232 173.35932084 71.86114896 182.42797852 78.95507812 C184.02530714 80.16344045 185.62264108 81.37179578 187.22021484 82.57983398 C200.41373077 92.60565311 213.07979731 103.43300465 224.69360352 115.25585938 C226.49595662 117.08523866 226.49595662 117.08523866 228.99047852 118.95507812 C231.79911765 121.25960254 234.00511923 123.81235143 236.35766602 126.57226562 C238.28606733 128.79174639 240.27328874 130.94399337 242.28442383 133.08837891 C257.16420835 149.01610901 270.42584369 166.97515264 281.23852539 185.89257812 C282.54428891 188.1567592 283.88358222 190.39926104 285.22485352 192.64257812 C295.64905197 210.25058334 304.764657 228.70032786 311.14672852 248.17382812 C312.11342084 251.02674939 313.15933024 253.72232158 314.32641602 256.49023438 C316.75562813 262.49027425 318.40425646 268.66624034 320.0378418 274.92260742 C320.55181294 276.88812076 321.07703039 278.85037182 321.60375977 280.8125 C327.11718813 301.67269352 327.11718813 301.67269352 325.42797852 306.95507812 C325.19723633 306.28677979 324.96649414 305.61848145 324.72875977 304.92993164 C319.97883499 291.2516033 315.12962916 277.809593 308.42797852 264.95507812 C308.08831055 264.30313477 307.74864258 263.65119141 307.39868164 262.97949219 C299.54608256 248.11512168 290.32868374 233.76747419 279.42797852 220.95507812 C278.5627699 219.90611439 277.69823422 218.85659539 276.83422852 217.80664062 C265.92962063 204.68554248 254.01694199 192.31207191 240.42797852 181.95507812 C239.19352587 180.99163594 237.9591567 180.02808678 236.72485352 179.06445312 C227.99718825 172.31651166 219.08021236 166.29375019 209.42797852 160.95507812 C208.58348145 160.48569824 207.73898437 160.01631836 206.86889648 159.53271484 C193.43630376 152.13253847 179.93138677 145.93081741 165.42797852 140.95507812 C164.08437256 140.48545654 164.08437256 140.48545654 162.71362305 140.00634766 C149.45721654 135.41025998 136.27338255 132.18375008 122.42797852 129.95507812 C121.1530957 129.74109375 119.87821289 129.52710938 118.56469727 129.30664062 C53.96263155 119.21028154 -15.41647641 136.37765097 -68.30639648 174.61132812 C-76.25408849 180.53397593 -84.54595215 186.92900879 -91.57202148 193.95507812 C-93.23819264 193.99571645 -94.90590243 193.99779913 -96.57202148 193.95507812 C-95.34215812 185.71810949 -93.64474222 177.73618646 -91.44702148 169.70507812 C-91.14062744 168.58174072 -90.8342334 167.45840332 -90.51855469 166.30102539 C-75.00538496 110.37598971 -49.46024056 54.62986524 -11.50170898 10.27539062 C-9.53025808 7.98619872 -9.53025808 7.98619872 -7.89233398 5.44726562 C-3.98378966 -0.06957924 -3.98378966 -0.06957924 0 0 Z " fill="#C12023" transform="translate(708.572021484375,179.044921875)"/>
<path d="M0 0 C0.60972656 0.42925781 1.21945312 0.85851562 1.84765625 1.30078125 C17.8125202 13.75688389 22.97585976 35.56853509 25.62646484 54.60546875 C28.56835752 81.34015884 26.72199342 117.17338415 9.73974609 139.66943359 C-1.57970503 153.51339601 -15.12019486 161.45419993 -33 164 C-52.86150686 165.69525479 -70.83286748 160.92289584 -88 151 C-88.14052585 135.54406791 -88.24614443 120.08818399 -88.31087303 104.6317625 C-88.34173454 97.45407874 -88.38376555 90.27679325 -88.45263672 83.09936523 C-88.51267717 76.83921663 -88.5512051 70.57935663 -88.56453097 64.31892806 C-88.5723138 61.00772249 -88.59364729 57.69752868 -88.63438034 54.38654137 C-88.67816697 50.67867201 -88.68392434 46.97249208 -88.68115234 43.2644043 C-88.702724 42.18186371 -88.72429565 41.09932312 -88.746521 39.98397827 C-88.63991841 26.73850901 -80.45973579 16.72913151 -71.75 7.375 C-53.0841594 -10.62271207 -21.75306194 -15.4216094 0 0 Z " fill="#FCFCFC" transform="translate(856,534)"/>
<path d="M0 0 C-4.93603559 3.29069039 -10.43829255 4.87560464 -16.06640625 6.65234375 C-33.49545892 12.259952 -52.7929332 21.41815206 -67 33 C-68.59903048 34.11992022 -70.19848009 35.23931105 -71.80639648 36.34643555 C-78.81630614 41.20064936 -85.20259915 46.44910444 -91.33300781 52.39746094 C-93.23885258 54.2296175 -95.17868864 56.02276293 -97.1171875 57.8203125 C-98.51705029 59.14954224 -99.91550282 60.48025887 -101.3125 61.8125 C-102.32848267 62.74582153 -102.32848267 62.74582153 -103.36499023 63.69799805 C-105.11679749 65.40140401 -106.65998821 66.95612025 -108 69 C-108.10194227 72.35985119 -108.10194227 72.35985119 -107 75 C-109.31 75 -111.62 75 -114 75 C-114.33 74.34 -114.66 73.68 -115 73 C-105.52059685 61.52493303 -94.76473895 51.0978616 -83 42 C-81.72351588 40.98362835 -80.44750814 39.96665824 -79.171875 38.94921875 C-60.05666883 23.85260121 -25.79099869 -1.56309083 0 0 Z " fill="#F72E29" transform="translate(822,105)"/>
<path d="M0 0 C1.23095149 3.69285448 0.68346646 4.27411343 -1 7.6640625 C-1.46768799 8.60942871 -1.93537598 9.55479492 -2.41723633 10.52880859 C-3.20070435 12.06142334 -3.20070435 12.06142334 -4 13.625 C-4.53455811 14.68154785 -5.06911621 15.7380957 -5.61987305 16.82666016 C-13.6782664 32.49556596 -22.71410057 47.68969576 -33 62 C-33.495 60.515 -33.495 60.515 -34 59 C-32.69921875 56.64453125 -32.69921875 56.64453125 -30.6875 53.8125 C-29.58341797 52.21341797 -29.58341797 52.21341797 -28.45703125 50.58203125 C-28.05822754 50.00533691 -27.65942383 49.42864258 -27.24853516 48.83447266 C-21.4716817 40.3465421 -16.09250343 31.63170513 -11.6484375 22.37109375 C-9.403227 17.77958507 -7.01323632 13.26838634 -4.625 8.75 C-4.17125 7.89043701 -3.7175 7.03087402 -3.25 6.14526367 C-2.16772235 4.09628136 -1.0844203 2.0478489 0 0 Z " fill="#DA185E" transform="translate(1087,638)"/>
<path d="M0 0 C1.65 0 3.3 0 5 0 C5.82101481 3.47721259 6.63021942 6.95707545 7.4375 10.4375 C7.66759766 11.41138672 7.89769531 12.38527344 8.13476562 13.38867188 C9.49046843 19.26338403 10.4596612 24.99416525 11 31 C7.92635299 26.38952948 6.31188765 21.23459531 4.375 16.0625 C3.95476562 14.96486328 3.53453125 13.86722656 3.1015625 12.73632812 C2.70453125 11.67994141 2.3075 10.62355469 1.8984375 9.53515625 C1.53411621 8.569729 1.16979492 7.60430176 0.79443359 6.60961914 C0 4 0 4 0 0 Z " fill="#BA1822" transform="translate(1024,455)"/>
<path d="M0 0 C0.33 0 0.66 0 1 0 C2.15398156 19.77532323 2.13654003 38.49337496 -2 58 C-2.66 57.67 -3.32 57.34 -4 57 C-3.86722656 55.99582031 -3.73445313 54.99164062 -3.59765625 53.95703125 C-3.41909659 52.57554334 -3.24072137 51.19403159 -3.0625 49.8125 C-2.97548828 49.15830078 -2.88847656 48.50410156 -2.79882812 47.83007812 C-1.32650127 36.32411642 -0.80888589 24.77352226 -0.4375 13.1875 C-0.39431641 11.91068359 -0.35113281 10.63386719 -0.30664062 9.31835938 C-0.20194245 6.2123135 -0.09976562 3.10620754 0 0 Z " fill="#DD3571" transform="translate(1044,547)"/>
<path d="M0 0 C-0.33 0.99 -0.66 1.98 -1 3 C1.475 3.495 1.475 3.495 4 4 C2.45248253 7.09503494 -0.17451391 7.28777638 -3.33984375 8.35742188 C-4.59474609 8.76831055 -4.59474609 8.76831055 -5.875 9.1875 C-6.70386719 9.47302734 -7.53273438 9.75855469 -8.38671875 10.05273438 C-9.18464844 10.31763672 -9.98257813 10.58253906 -10.8046875 10.85546875 C-11.53671387 11.09934326 -12.26874023 11.34321777 -13.02294922 11.59448242 C-15 12 -15 12 -18 11 C-17.18015625 10.45730469 -16.3603125 9.91460938 -15.515625 9.35546875 C-14.43796875 8.64003906 -13.3603125 7.92460938 -12.25 7.1875 C-11.18265625 6.47980469 -10.1153125 5.77210938 -9.015625 5.04296875 C-7.21934872 3.82606137 -5.44716858 2.57012591 -3.734375 1.23828125 C-2 0 -2 0 0 0 Z " fill="#D92D4D" transform="translate(889,818)"/>
<path d="M0 0 C0.33 0 0.66 0 1 0 C0.50272631 6.3402395 -1.11367945 11.99979948 -3.0625 18.046875 C-3.79681523 20.35996797 -4.42652072 22.64518243 -5 25 C-5.65509503 27.00382009 -6.31974363 29.00458132 -7 31 C-7.66 31 -8.32 31 -9 31 C-7.74183401 23.71056271 -5.7885101 16.86044388 -3.375 9.875 C-3.05015625 8.91851562 -2.7253125 7.96203125 -2.390625 6.9765625 C-1.59928341 4.64908723 -0.80235801 2.3236955 0 0 Z " fill="#B7213E" transform="translate(628,314)"/>
<path d="M0 0 C0.77214844 0.00902344 1.54429687 0.01804687 2.33984375 0.02734375 C2.90832031 0.03894531 3.47679687 0.05054687 4.0625 0.0625 C3.7325 0.7225 3.4025 1.3825 3.0625 2.0625 C0.23391174 2.49443713 -2.52925781 2.81465051 -5.375 3.0625 C-11.37299602 3.6366631 -17.15139865 4.3414552 -22.9921875 5.890625 C-25.49613745 6.11185753 -26.81641629 5.33705254 -28.9375 4.0625 C-26.25025296 3.58187876 -23.56271967 3.10296504 -20.875 2.625 C-20.12283203 2.49029297 -19.37066406 2.35558594 -18.59570312 2.21679688 C-5.61890323 -0.08644467 -5.61890323 -0.08644467 0 0 Z " fill="#F64C47" transform="translate(856.9375,97.9375)"/>
<path d="M0 0 C-4.94286471 2.0328692 -9.9006362 4.02308786 -14.9375 5.8125 C-15.64777344 6.06644531 -16.35804688 6.32039062 -17.08984375 6.58203125 C-19 7 -19 7 -22 6 C-19.07450272 3.52613479 -16.89503017 2.54234908 -13.125 1.9375 C-10.08135741 1.40778049 -7.44394685 0.81133911 -4.5 -0.1875 C-2 -1 -2 -1 0 0 Z " fill="#D12140" transform="translate(893,823)"/>
<path d="M0 0 C2.49505962 2.49505962 2.35948376 3.67328888 2.625 7.125 C2.69976563 8.03507812 2.77453125 8.94515625 2.8515625 9.8828125 C2.90054688 10.58148438 2.94953125 11.28015625 3 12 C1.35 12 -0.3 12 -2 12 C-1.34 8.04 -0.68 4.08 0 0 Z " fill="#B92049" transform="translate(614,361)"/>
<path d="M0 0 C2.50037734 2.17424117 3.43628586 3.73045798 4 7 C1.69 7 -0.62 7 -3 7 C-3.33 6.34 -3.66 5.68 -4 5 C-2.68 3.35 -1.36 1.7 0 0 Z " fill="#F53D36" transform="translate(711,173)"/>
<path d="M0 0 C4.32046898 1.41680244 7.00461199 3.53763785 10.3125 6.625 C11.19550781 7.44226563 12.07851563 8.25953125 12.98828125 9.1015625 C13.65214844 9.72804687 14.31601562 10.35453125 15 11 C10.80802878 11 8.83707618 8.67382431 5.8125 6.0625 C5.25369141 5.59392578 4.69488281 5.12535156 4.11914062 4.64257812 C2.72161432 3.4566431 1.35766377 2.23136946 0 1 C0 0.67 0 0.34 0 0 Z " fill="#E22240" transform="translate(995,142)"/>
<path d="M0 0 C1.22213016 3.66639049 0.63855512 5.35293431 -0.3125 9.0625 C-0.57675781 10.12597656 -0.84101562 11.18945312 -1.11328125 12.28515625 C-2 15 -2 15 -4 17 C-4.67012098 10.80138093 -2.24947173 5.64376389 0 0 Z " fill="#D6C0AA" transform="translate(618,342)"/>
<path d="M0 0 C0.66 0 1.32 0 2 0 C0.78934835 3.63195496 -0.53691126 4.42896192 -3.5625 6.6875 C-4.38878906 7.31011719 -5.21507812 7.93273437 -6.06640625 8.57421875 C-6.70449219 9.04472656 -7.34257813 9.51523437 -8 10 C-8.66 9.34 -9.32 8.68 -10 8 C-9.36191406 7.50628906 -8.72382812 7.01257813 -8.06640625 6.50390625 C-7.24011719 5.86324219 -6.41382813 5.22257813 -5.5625 4.5625 C-4.73878906 3.92441406 -3.91507813 3.28632812 -3.06640625 2.62890625 C-1.12498733 1.16417803 -1.12498733 1.16417803 0 0 Z " fill="#D12B49" transform="translate(904,805)"/>
<path d="M0 0 C0.33 0.99 0.66 1.98 1 3 C-1.64 5.31 -4.28 7.62 -7 10 C-7.66 9.67 -8.32 9.34 -9 9 C-6.03 6.03 -3.06 3.06 0 0 Z " fill="#CF1E47" transform="translate(965,739)"/>
<path d="M0 0 C1.125 1.5 1.125 1.5 2 4 C1.57598348 6.7773082 0.81108065 9.29639783 0 12 C-0.66 12 -1.32 12 -2 12 C-1.85831863 10.56208484 -1.71148957 9.1246763 -1.5625 7.6875 C-1.48128906 6.88699219 -1.40007812 6.08648438 -1.31640625 5.26171875 C-1 3 -1 3 0 0 Z " fill="#DA2968" transform="translate(1039,606)"/>
<path d="M0 0 C-4.0512021 2.7008014 -8.12318093 4.47277632 -13 5 C-13.66 4.34 -14.32 3.68 -15 3 C-13.44033782 2.491217 -11.87710759 1.99336531 -10.3125 1.5 C-9.44238281 1.2215625 -8.57226562 0.943125 -7.67578125 0.65625 C-5.00608323 0.00149195 -2.73603316 -0.11831495 0 0 Z " fill="#F74039" transform="translate(822,105)"/>
<path d="M0 0 C-2.97 2.475 -2.97 2.475 -6 5 C-6 3.68 -6 2.36 -6 1 C-7.32 0.67 -8.64 0.34 -10 0 C-6.33694766 -0.74926071 -3.57644848 -1.2380014 0 0 Z " fill="#5A4347" transform="translate(616,374)"/>
<path d="M0 0 C5.06998019 0.65419099 9.41990777 2.8546409 14 5 C9.77059037 6.40980321 7.91820881 4.92473415 4 3 C1.5625 1.3125 1.5625 1.3125 0 0 Z " fill="#E92B38" transform="translate(950,115)"/>
<path d="M0 0 C0.79921875 0.00902344 1.5984375 0.01804687 2.421875 0.02734375 C3.02515625 0.03894531 3.6284375 0.05054687 4.25 0.0625 C0.5907937 2.02912189 -2.58028311 2.75363208 -6.75 3.0625 C-7.41 2.4025 -8.07 1.7425 -8.75 1.0625 C-5.75519083 0.1901588 -3.11424089 -0.04579766 0 0 Z " fill="#F63D35" transform="translate(836.75,100.9375)"/>
<path d="M0 0 C0.99 0.33 1.98 0.66 3 1 C-0.465 3.97 -0.465 3.97 -4 7 C-4.66 6.67 -5.32 6.34 -6 6 C-4.02 4.02 -2.04 2.04 0 0 Z " fill="#3E2F30" transform="translate(859,680)"/>
<path d="M0 0 C0.66 1.32 1.32 2.64 2 4 C0.625 7.75 0.625 7.75 -1 11 C-1.66 10.67 -2.32 10.34 -3 10 C-2.01 6.7 -1.02 3.4 0 0 Z " fill="#D92A66" transform="translate(1029,641)"/>
<path d="M0 0 C0.66 0.33 1.32 0.66 2 1 C0.02 3.31 -1.96 5.62 -4 8 C-4.33 7.01 -4.66 6.02 -5 5 C-3.35 3.35 -1.7 1.7 0 0 Z " fill="#F92622" transform="translate(717,167)"/>
<path d="M0 0 C0.33 0 0.66 0 1 0 C1 2.97 1 5.94 1 9 C-2 5.375 -2 5.375 -2 2 C-1.34 2 -0.68 2 0 2 C0 1.34 0 0.68 0 0 Z " fill="#B21716" transform="translate(1028,459)"/>
</svg>

